<?xml version="1.0" encoding="UTF-8"?> <svg xmlns="http://www.w3.org/2000/svg" width="42" height="42" viewBox="0 0 42 42" fill="none"><path d="M12.25 28C11.9039 28 11.5655 28.1026 11.2778 28.2949C10.99 28.4872 10.7657 28.7605 10.6332 29.0803C10.5008 29.4001 10.4661 29.7519 10.5336 30.0914C10.6011 30.4309 10.7678 30.7427 11.0126 30.9874C11.2573 31.2322 11.5691 31.3988 11.9086 31.4664C12.2481 31.5339 12.5999 31.4992 12.9197 31.3668C13.2395 31.2343 13.5128 31.01 13.7051 30.7222C13.8974 30.4345 14 30.0961 14 29.75C14 29.2859 13.8156 28.8407 13.4874 28.5126C13.1592 28.1844 12.7141 28 12.25 28ZM33.355 21L35.5075 18.8475C36.4907 17.8631 37.0429 16.5288 37.0429 15.1375C37.0429 13.7462 36.4907 12.4119 35.5075 11.4275L30.555 6.4925C29.5706 5.50935 28.2363 4.95712 26.845 4.95712C25.4537 4.95712 24.1194 5.50935 23.135 6.4925L21 8.645C20.9725 7.27089 20.4073 5.96235 19.4257 5.00038C18.4441 4.03841 17.1244 3.49973 15.75 3.5H8.75C7.35761 3.5 6.02226 4.05312 5.03769 5.03769C4.05312 6.02226 3.5 7.35761 3.5 8.75V33.25C3.5 34.6424 4.05312 35.9777 5.03769 36.9623C6.02226 37.9469 7.35761 38.5 8.75 38.5H33.25C34.6424 38.5 35.9777 37.9469 36.9623 36.9623C37.9469 35.9777 38.5 34.6424 38.5 33.25V26.25C38.5003 24.8756 37.9616 23.5559 36.9996 22.5743C36.0376 21.5927 34.7291 21.0275 33.355 21ZM17.5 33.25C17.5 33.7141 17.3156 34.1593 16.9874 34.4874C16.6592 34.8156 16.2141 35 15.75 35H8.75C8.28587 35 7.84075 34.8156 7.51256 34.4874C7.18438 34.1593 7 33.7141 7 33.25V8.75C7 8.28587 7.18438 7.84075 7.51256 7.51256C7.84075 7.18437 8.28587 7 8.75 7H15.75C16.2141 7 16.6592 7.18437 16.9874 7.51256C17.3156 7.84075 17.5 8.28587 17.5 8.75V33.25ZM21 13.58L25.62 8.96C25.9479 8.63406 26.3914 8.45111 26.8538 8.45111C27.3161 8.45111 27.7596 8.63406 28.0875 8.96L33.04 14C33.3659 14.3279 33.5489 14.7714 33.5489 15.2337C33.5489 15.6961 33.3659 16.1396 33.04 16.4675L28 21.5075L21 28.42V13.58ZM35 33.25C35 33.7141 34.8156 34.1593 34.4874 34.4874C34.1593 34.8156 33.7141 35 33.25 35H20.685C20.8645 34.4813 20.9648 33.9386 20.9825 33.39L29.8725 24.5H33.25C33.7141 24.5 34.1593 24.6844 34.4874 25.0126C34.8156 25.3408 35 25.7859 35 26.25V33.25Z" fill="#34DC75"></path></svg> 