<?xml version="1.0" encoding="UTF-8"?> <svg xmlns="http://www.w3.org/2000/svg" width="36" height="36" viewBox="0 0 36 36" fill="none"><path d="M1.37496 12.505L17.125 21.605C17.391 21.7586 17.6928 21.8395 18 21.8395C18.3072 21.8395 18.6089 21.7586 18.875 21.605L34.625 12.505C34.8895 12.3523 35.1094 12.1331 35.2629 11.869C35.4164 11.605 35.4981 11.3054 35.5 11C35.5012 10.6916 35.4209 10.3884 35.2672 10.1211C35.1136 9.8537 34.892 9.63169 34.625 9.47751L18.875 0.395009C18.6089 0.241414 18.3072 0.160553 18 0.160553C17.6928 0.160553 17.391 0.241414 17.125 0.395009L1.37496 9.47751C1.1079 9.63169 0.886329 9.8537 0.732674 10.1211C0.579018 10.3884 0.498738 10.6916 0.499962 11C0.501805 11.3054 0.58354 11.605 0.737043 11.869C0.890545 12.1331 1.11047 12.3523 1.37496 12.505V12.505ZM18 4.00001L30.25 11L18 18L5.74996 11L18 4.00001ZM32.875 16.5475L18 25L3.12496 16.4775C2.92523 16.3618 2.70458 16.2867 2.47571 16.2567C2.24685 16.2266 2.0143 16.2421 1.79146 16.3023C1.56861 16.3625 1.35987 16.4662 1.17727 16.6074C0.994658 16.7486 0.841789 16.9245 0.727462 17.125C0.49931 17.5268 0.439344 18.0026 0.560649 18.4485C0.681953 18.8943 0.974681 19.2741 1.37496 19.505L17.125 28.605C17.391 28.7586 17.6928 28.8395 18 28.8395C18.3072 28.8395 18.6089 28.7586 18.875 28.605L34.625 19.505C35.0252 19.2741 35.318 18.8943 35.4393 18.4485C35.5606 18.0026 35.5006 17.5268 35.2725 17.125C35.1581 16.9245 35.0053 16.7486 34.8227 16.6074C34.64 16.4662 34.4313 16.3625 34.2085 16.3023C33.9856 16.2421 33.7531 16.2266 33.5242 16.2567C33.2953 16.2867 33.0747 16.3618 32.875 16.4775V16.5475ZM32.875 23.5475L18 32L3.12496 23.4775C2.92523 23.3618 2.70458 23.2867 2.47571 23.2567C2.24685 23.2266 2.0143 23.2421 1.79146 23.3023C1.56861 23.3625 1.35987 23.4662 1.17727 23.6074C0.994658 23.7486 0.841789 23.9245 0.727462 24.125C0.49931 24.5268 0.439344 25.0026 0.560649 25.4485C0.681953 25.8943 0.974681 26.2742 1.37496 26.505L17.125 35.605C17.391 35.7586 17.6928 35.8395 18 35.8395C18.3072 35.8395 18.6089 35.7586 18.875 35.605L34.625 26.505C35.0252 26.2742 35.318 25.8943 35.4393 25.4485C35.5606 25.0026 35.5006 24.5268 35.2725 24.125C35.1581 23.9245 35.0053 23.7486 34.8227 23.6074C34.64 23.4662 34.4313 23.3625 34.2085 23.3023C33.9856 23.2421 33.7531 23.2266 33.5242 23.2567C33.2953 23.2867 33.0747 23.3618 32.875 23.4775V23.5475Z" fill="#34DC75"></path></svg> 